<?xml version="1.0" standalone="no"?>
<!DOCTYPE svg PUBLIC "-//W3C//DTD SVG 20010904//EN"
 "http://www.w3.org/TR/2001/REC-SVG-20010904/DTD/svg10.dtd">
<svg version="1.0" xmlns="http://www.w3.org/2000/svg"
 width="50.000000pt" height="50.000000pt" viewBox="0 0 50.000000 50.000000"
 preserveAspectRatio="xMidYMid meet">

<g transform="translate(0.000000,50.000000) scale(0.100000,-0.100000)"
fill="#000000" stroke="none">
<path d="M0 250 l0 -250 250 0 250 0 0 250 0 250 -250 0 -250 0 0 -250z m399
202 c58 -31 71 -69 71 -205 0 -128 -9 -159 -56 -196 -24 -19 -40 -21 -164 -21
-124 0 -140 2 -164 21 -47 37 -56 68 -56 196 0 136 13 174 71 205 49 26 249
26 298 0z"/>
<path d="M108 424 c-15 -8 -32 -23 -38 -34 -5 -10 -10 -75 -10 -144 0 -125 0
-126 29 -158 l29 -33 132 0 132 0 29 33 c29 32 29 33 29 158 0 69 -5 134 -10
145 -21 38 -62 49 -182 49 -80 -1 -121 -5 -140 -16z m88 -38 c3 -8 14 -16 25
-19 21 -6 26 -47 20 -157 -3 -76 17 -54 25 28 l7 62 43 0 c56 0 69 -21 59 -97
-5 -39 -3 -53 4 -49 6 4 11 16 11 27 0 10 5 19 10 19 11 0 14 -49 4 -74 -7
-19 -70 -22 -77 -3 -2 6 -2 37 1 68 3 36 0 59 -7 63 -7 5 -11 -5 -12 -31 0
-61 -20 -108 -46 -108 -12 0 -25 -4 -29 -8 -4 -4 -20 -7 -35 -7 -28 0 -39 19
-39 73 0 15 -4 27 -10 27 -5 0 -10 -20 -10 -45 0 -33 -4 -45 -15 -45 -23 0
-31 29 -29 112 2 98 11 148 28 148 8 0 16 7 20 15 7 19 45 20 52 1z m154 -6
c6 -11 20 -20 30 -20 13 0 20 -7 20 -20 0 -18 -7 -20 -62 -20 -35 0 -69 4 -77
9 -17 11 -7 41 14 41 8 0 15 7 15 15 0 23 47 19 60 -5z"/>
<path d="M150 320 c0 -6 5 -8 10 -5 6 4 18 1 27 -7 14 -11 16 -11 11 2 -5 18
-48 27 -48 10z"/>
<path d="M145 270 c3 -5 18 -10 32 -10 32 0 28 5 -10 14 -19 4 -26 3 -22 -4z"/>
<path d="M181 198 c0 -7 4 -22 9 -33 7 -17 9 -15 9 13 1 17 -3 32 -9 32 -5 0
-10 -6 -9 -12z"/>
</g>
</svg>
