<?xml version="1.0" standalone="no"?>
<!DOCTYPE svg PUBLIC "-//W3C//DTD SVG 1.0//EN" "http://www.w3.org/TR/2001/REC-SVG-20010904/DTD/svg10.dtd">
<svg xmlns="http://www.w3.org/2000/svg" xmlns:xlink="http://www.w3.org/1999/xlink" id="body_1" width="125" height="125">

<g transform="matrix(0.4664179 0 0 0.4664179 0 0)">
	<g transform="matrix(0.1 0 -0 -0.1 0 268)">
        <path d="M0 1340L0 0L1340 0L2680 0L2680 1340L2680 2680L1340 2680L0 2680L0 1340zM1995 2496C 2207 2434 2371 2296 2464 2100C 2528 1965 2530 1948 2530 1325C 2530 702 2528 685 2464 550C 2370 352 2205 213 1990 153C 1930 137 1876 135 1340 135C 804 135 750 137 690 153C 478 213 313 350 219 545C 152 684 150 697 150 1325C 150 1953 152 1966 219 2105C 326 2327 529 2478 765 2510C 798 2514 1075 2517 1380 2516C 1874 2514 1942 2511 1995 2496z" stroke="none" fill="#000000" fill-rule="nonzero" />
        <path d="M720 2334C 622 2308 559 2270 479 2191C 402 2114 375 2072 337 1970C 316 1917 315 1895 312 1360C 309 741 310 723 376 591C 418 507 529 397 611 358C 736 299 725 300 1335 300C 1944 300 1953 301 2070 357C 2136 389 2267 516 2300 580C 2367 712 2364 680 2368 1290C 2371 1773 2369 1853 2355 1917C 2310 2120 2164 2273 1960 2334C 1883 2357 805 2357 720 2334zM1819 2129C 1856 2116 1870 2094 1870 2050C 1870 1983 1908 1960 2017 1960C 2122 1960 2160 1928 2174 1828C 2180 1786 2178 1777 2157 1756C 2143 1742 2116 1728 2095 1724C 2045 1715 1466 1727 1412 1738C 1344 1753 1335 1768 1335 1860C 1335 1962 1342 1970 1449 1979C 1499 1983 1534 1991 1539 1999C 1544 2006 1550 2035 1553 2062C 1557 2090 1565 2118 1571 2126C 1585 2143 1771 2146 1819 2129zM1050 2121C 1073 2114 1075 2110 1072 2063C 1070 2033 1073 2009 1080 2005C 1086 2001 1121 1996 1158 1993C 1283 1984 1283 1984 1290 1692L1290 1692L1295 1460L1334 1424L1373 1389L1367 1297C 1363 1216 1360 1204 1339 1188C 1326 1178 1309 1165 1302 1159C 1282 1143 1289 855 1310 855C 1326 855 1351 916 1382 1030C 1398 1090 1404 1150 1409 1333L1409 1333L1415 1562L1447 1590C 1487 1626 1565 1636 1735 1626C 1884 1618 1925 1607 1966 1566C 2018 1514 2024 1462 2016 1117C 2009 821 2009 820 2030 820C 2056 820 2058 825 2069 938C 2079 1049 2093 1070 2153 1070C 2236 1070 2245 1029 2210 831C 2186 698 2170 657 2128 613C 2087 571 2024 557 1897 561C 1801 565 1798 566 1770 597C 1731 641 1728 683 1738 1019C 1748 1318 1744 1370 1710 1370C 1694 1370 1691 1360 1685 1303C 1648 898 1559 611 1459 569C 1415 551 1386 565 1346 621C 1325 649 1304 670 1297 667C 1291 665 1281 639 1275 610C 1259 527 1239 517 1081 512C 930 507 917 513 906 596C 895 670 881 708 860 715C 834 723 829 748 823 927C 817 1086 809 1130 792 1102C 787 1095 780 1014 777 922C 768 684 737 560 687 560C 649 560 580 615 529 684C 495 730 493 760 516 892C 536 1007 531 1099 505 1114C 456 1143 450 1157 450 1243C 450 1288 454 1330 458 1336C 462 1342 480 1355 498 1364L498 1364L530 1381L530 1493C 530 1554 534 1655 540 1715C 558 1935 580 1980 668 1980C 726 1980 752 2003 769 2066C 776 2092 788 2111 802 2118C 827 2130 1011 2132 1050 2121z" stroke="none" fill="#000000" fill-rule="nonzero" />
        <path d="M832 1753C 808 1748 785 1716 795 1700C 804 1685 840 1688 894 1706C 938 1721 942 1721 960 1705C 971 1695 991 1667 1005 1644C 1033 1597 1044 1590 1054 1616C 1076 1672 1050 1736 1001 1750C 965 1760 876 1761 832 1753z" stroke="none" fill="#000000" fill-rule="nonzero" />
        <path d="M787 1513C 770 1497 781 1438 805 1415C 826 1393 838 1390 902 1391C 987 1391 1043 1408 1048 1433C 1053 1460 1024 1464 961 1445C 929 1436 895 1430 885 1432C 874 1434 853 1454 837 1478C 809 1520 800 1526 787 1513z" stroke="none" fill="#000000" fill-rule="nonzero" />
        <path d="M1009 1123C 1000 1103 1000 1058 1008 955C 1019 808 1025 777 1044 783C 1057 787 1065 1047 1052 1105C 1042 1153 1024 1161 1009 1123z" stroke="none" fill="#000000" fill-rule="nonzero" />
	</g>
</g>
</svg>